<svg
                        width="132"
                        height="109"
                        viewBox="0 0 132 109"
                        fill="none"
                        xmlns="http://www.w3.org/2000/svg"
                      >
                        <path
                          opacity="0.5"
                          d="M33.0354 90.11C19.9851 102.723 -3.75916 101.834 -14 99.8125V-15H132C131.456 -12.4396 127.759 -2.95278 117.318 14.5117C104.268 36.3422 78.7114 31.8952 63.2141 41.1934C47.7169 50.4916 49.3482 74.3435 33.0354 90.11Z"
                          fill="url(#paint0_linear_111:606)"
                        />
                        <path
                          opacity="0.5"
                          d="M33.3654 85.0768C24.1476 98.7862 1.19876 106.079 -9.12343 108.011L-38.876 22.9988L100.816 -25.8905C100.959 -23.8126 99.8798 -15.5499 94.4164 0.87754C87.5871 21.4119 61.9822 26.677 49.5641 38.7512C37.146 50.8253 44.8877 67.9401 33.3654 85.0768Z"
                          fill="url(#paint1_linear_111:606)"
                        />
                        <defs>
                          <linearGradient
                            id="paint0_linear_111:606"
                            x1="94.7523"
                            y1="82.0246"
                            x2="8.40951"
                            y2="52.0609"
                            gradientUnits="userSpaceOnUse"
                          >
                            <stop stop-color="white" stop-opacity="0.06" />
                            <stop
                              offset="1"
                              stop-color="white"
                              stop-opacity="0"
                            />
                          </linearGradient>
                          <linearGradient
                            id="paint1_linear_111:606"
                            x1="90.3206"
                            y1="58.4236"
                            x2="1.16149"
                            y2="50.8365"
                            gradientUnits="userSpaceOnUse"
                          >
                            <stop stop-color="white" stop-opacity="0.06" />
                            <stop
                              offset="1"
                              stop-color="white"
                              stop-opacity="0"
                            />
                          </linearGradient>
                        </defs>
                      </svg>