<svg
                            width="20"
                            height="12"
                            viewBox="0 0 20 12"
                            className="fill-current"
                          >
                            <path d="M10.2559 3.8125C9.03711 3.8125 8.06836 4.8125 8.06836 6C8.06836 7.1875 9.06836 8.1875 10.2559 8.1875C11.4434 8.1875 12.4434 7.1875 12.4434 6C12.4434 4.8125 11.4746 3.8125 10.2559 3.8125ZM10.2559 7.09375C9.66211 7.09375 9.16211 6.59375 9.16211 6C9.16211 5.40625 9.66211 4.90625 10.2559 4.90625C10.8496 4.90625 11.3496 5.40625 11.3496 6C11.3496 6.59375 10.8496 7.09375 10.2559 7.09375Z" />
                            <path d="M19.7559 5.625C17.6934 2.375 14.1309 0.4375 10.2559 0.4375C6.38086 0.4375 2.81836 2.375 0.755859 5.625C0.630859 5.84375 0.630859 6.125 0.755859 6.34375C2.81836 9.59375 6.38086 11.5312 10.2559 11.5312C14.1309 11.5312 17.6934 9.59375 19.7559 6.34375C19.9121 6.125 19.9121 5.84375 19.7559 5.625ZM10.2559 10.4375C6.84961 10.4375 3.69336 8.78125 1.81836 5.96875C3.69336 3.1875 6.84961 1.53125 10.2559 1.53125C13.6621 1.53125 16.8184 3.1875 18.6934 5.96875C16.8184 8.78125 13.6621 10.4375 10.2559 10.4375Z" />
                          </svg>