<svg xmlns:xlink="http://www.w3.org/1999/xlink" xmlns="http://www.w3.org/2000/svg" width="8" height="8" viewBox="0 0 8 8" class="a26 a1C">
<path d="M1.40102 0.95486C1.27421 0.828319 1.07219 0.828354 0.945421 0.954965C0.818519 1.08171 0.818519 1.28389 0.945421 1.41063L0.945612 1.41083L3.54915 4.00184L0.955169 6.60202C0.955106 6.60209 0.95504 6.60215 0.954978 6.60222C0.828263 6.72897 0.82833 6.93101 0.955169 7.05769C1.01288 7.11533 1.09989 7.15024 1.17815 7.15024C1.25641 7.15024 1.34342 7.11533 1.40113 7.05769L1.29513 6.95156L1.40113 7.05769L4.00493 4.45706L6.59917 7.0575L6.59936 7.05769C6.65707 7.11533 6.74408 7.15024 6.82234 7.15024C6.9006 7.15024 6.98761 7.11533 7.04532 7.05769C7.17215 6.93102 7.17222 6.729 7.04553 6.60224C7.04546 6.60217 7.04539 6.6021 7.04532 6.60202L4.46051 4.00165L7.05507 1.4009C7.05511 1.40085 7.05516 1.4008 7.05521 1.40076L7.05526 1.40071L6.94907 1.29477L1.40102 0.95486ZM1.40102 0.95486C1.40106 0.954895 1.40109 0.95493 1.40113 0.954965L1.40102 0.95486Z" stroke-width="0.3px" stroke="#4A6CF7" fill="#4A6CF7"></path>
</svg>